<svg xmlns="http://www.w3.org/2000/svg" viewBox="0 0 280.15 280.15"><defs><style>.cls-1{fill:#007ab1;}.cls-2{fill:#fff;}</style></defs><title>Element 1300</title><g id="Ebene_2" data-name="Ebene 2"><g id="Ebene_1-2" data-name="Ebene 1"><path class="cls-1" d="M237.05,0H43.1S0,0,0,43.1v194s0,43.1,43.1,43.1h194s43.1,0,43.1-43.1V43.1S280.15,0,237.05,0Z"/><path class="cls-2" d="M184.41,146.83v-.06h-9.07c-.21,22.56-2.65,55.06-13.74,66.34-5.28,5.38-12.3,8-21.42,8.09H140c-9.23,0-16.3-2.68-21.62-8.09-11.08-11.28-13.53-43.78-13.74-66.34H95.57v.07a21.58,21.58,0,0,0-20.3,21.54c0,11.93,12.27,28.16,24.2,28.16.15,0,.28,0,.43,0,5.26,19.38,16.54,33.79,40.08,33.88h0c23.55-.09,34.82-14.51,40.09-33.89.2,0,.39,0,.59,0,11.93,0,24.2-16.23,24.2-28.16A21.59,21.59,0,0,0,184.41,146.83Z"/><path class="cls-2" d="M200,122.9c-2.22-34.47-13.86-53.59-37.89-60.67V92.69H154V60.91c0-6.43-6.44-6.43-6.44-6.43l-5,0v0l-2.45,0-2.44,0v0l-5,0s-6,.05-6.38,6h0v.29a1.25,1.25,0,0,0,0,.19V92.69h-8.26V62.62C94.66,70.31,83,90.35,80.33,123a263.2,263.2,0,0,1,119.7,0Zm.36,8.06A256.65,256.65,0,0,0,80,131l-.27,8.5h.25a262.29,262.29,0,0,1,120.3,0h.22C200.49,136.56,200.45,133.74,200.39,131Z"/></g></g></svg>